<?xml version="1.0" encoding="utf-8"?>
<!-- Generator: Adobe Illustrator 26.0.0, SVG Export Plug-In . SVG Version: 6.00 Build 0)  -->
<svg version="1.1" id="Capa_1" xmlns="http://www.w3.org/2000/svg" xmlns:xlink="http://www.w3.org/1999/xlink" x="0px" y="0px"
	 viewBox="0 0 50 50" style="enable-background:new 0 0 50 50;" xml:space="preserve">
<style type="text/css">
	.st0{fill:#50007F;}
</style>
<g>
	<path class="st0" d="M10.55,39.38c-4.8,1.19-8.53-1.68-9.76-4.27c-0.86-1.8-1.01-3.65-0.48-5.57c0.53-1.91,1.58-3.45,3.27-4.54
		c-3.52-2.35-4.26-6.86-2.99-9.71c0.85-1.91,2.23-3.28,4.1-4.17c1.87-0.89,3.83-1.02,5.86-0.5c-0.8-4.45,0.55-7.88,4.65-9.94
		c1.72-0.86,3.57-0.84,5.4-0.29c1.83,0.55,3.31,1.58,4.36,3.21c2.47-3.64,7.07-4.21,9.85-2.94c3.61,1.65,5.18,4.95,4.6,9.96
		c2.69-0.68,5.16-0.23,7.38,1.4c1.31,0.96,2.25,2.23,2.79,3.77c1.07,3.04-0.05,7.17-3.12,9.14c3.45,2.92,4.61,6.41,2.48,10.59
		c-1.28,2.51-4.96,5-9.49,3.87c0.77,4.59-0.6,8.27-5.09,10.03c-3.72,1.46-6.91,0.12-9.41-3.03c-1.22,1.89-3,2.95-5.17,3.4
		c-1.58,0.33-3.13,0.18-4.6-0.48c-1.88-0.84-3.21-2.25-4.1-4.09C10.37,43.75,10.25,42.59,10.55,39.38z M23.6,35.06
		c0.01,0,0.02,0,0.03,0c0-2.12,0-4.25,0-6.37c0-1.61-0.75-2.36-2.36-2.36c-3.78,0-7.56-0.02-11.34,0.01
		c-0.94,0.01-1.89,0.08-2.82,0.22c-4.34,0.65-5.33,5.44-3.56,7.93c1.93,2.73,6.25,3.63,8.85,0.42c0.25-0.31,0.46-0.73,0.48-1.12
		c0.1-1.84,1.53-3.25,3.34-3.23c1.74,0.03,3.17,1.49,3.18,3.24c0.01,1.8-1.44,3.22-3.29,3.27c-0.24,0.01-0.52,0.05-0.71,0.19
		c-2.01,1.4-2.81,3.6-2.18,5.92c0.64,2.4,2.78,4.09,5.11,4.04c2.63-0.06,4.52-1.61,5.05-4.2c0.13-0.63,0.21-1.27,0.22-1.91
		C23.62,39.1,23.6,37.08,23.6,35.06z M14.97,23.61c0,0,0,0.01,0,0.01c2.13,0,4.25,0,6.38,0c1.54,0,2.29-0.75,2.29-2.29
		c0-3.77,0.02-7.55-0.01-11.32c-0.01-0.96-0.07-1.93-0.23-2.88c-0.52-3.18-3.62-5.14-6.6-4.16c-2.28,0.75-3.47,2.46-3.76,4.77
		c-0.27,2.14,0.72,3.77,2.41,5.01c0.15,0.11,0.4,0.14,0.6,0.15c1.92,0.05,3.36,1.45,3.35,3.27c-0.01,1.76-1.43,3.2-3.18,3.22
		c-1.86,0.02-3.26-1.37-3.32-3.29c-0.01-0.22-0.06-0.47-0.18-0.65c-1.31-1.97-3.56-2.83-5.85-2.25c-2.42,0.61-4.14,2.69-4.15,5.02
		c-0.01,2.62,1.51,4.52,4.16,5.14c0.66,0.15,1.36,0.23,2.04,0.24C10.93,23.63,12.95,23.61,14.97,23.61z M34.98,26.37
		c0-0.01,0-0.03,0-0.04c-2.13,0-4.25-0.01-6.38,0c-1.51,0-2.26,0.75-2.26,2.25c0,3.82-0.01,7.64,0.01,11.45
		c0,0.86,0.05,1.72,0.16,2.56c0.17,1.28,0.64,2.45,1.65,3.32c2.34,2.02,5.83,1.64,7.63-0.8c1.68-2.27,1.82-5.74-1.29-7.9
		c-0.16-0.11-0.4-0.14-0.6-0.14c-1.91-0.05-3.34-1.46-3.32-3.29c0.02-1.76,1.44-3.2,3.19-3.22c1.84-0.02,3.25,1.4,3.31,3.31
		c0.01,0.22,0.05,0.48,0.18,0.66c1.36,1.99,3.61,2.82,5.92,2.21c2.47-0.65,4.14-2.79,4.08-5.2c-0.06-2.52-1.64-4.41-4.17-4.94
		c-0.61-0.13-1.23-0.22-1.85-0.22C39.15,26.35,37.07,26.37,34.98,26.37z M34.88,23.62c0.13,0,0.26,0,0.39,0
		c2.45-0.05,4.9,0.04,7.33-0.19c3.3-0.31,5.4-3.52,4.45-6.55c-0.66-2.1-2.18-3.3-4.28-3.73c-2.14-0.44-3.89,0.29-5.24,1.97
		c-0.23,0.29-0.41,0.7-0.43,1.07c-0.09,1.84-1.51,3.23-3.35,3.21c-1.76-0.03-3.16-1.46-3.16-3.24c0-1.82,1.43-3.22,3.29-3.25
		c0.22,0,0.48-0.04,0.66-0.16c1.94-1.29,2.79-3.45,2.28-5.72c-0.55-2.45-2.66-4.26-4.99-4.28c-2.67-0.02-4.59,1.48-5.21,4.15
		c-0.16,0.68-0.24,1.4-0.24,2.1c-0.03,4.16-0.02,8.32-0.02,12.48c0,1.38,0.76,2.14,2.16,2.14C30.63,23.63,32.76,23.62,34.88,23.62z"
		/>
</g>
</svg>
