<?xml version="1.0" encoding="utf-8"?>
<!-- Generator: Adobe Illustrator 26.0.0, SVG Export Plug-In . SVG Version: 6.00 Build 0)  -->
<svg version="1.1" id="Capa_1" xmlns="http://www.w3.org/2000/svg" xmlns:xlink="http://www.w3.org/1999/xlink" x="0px" y="0px"
	 viewBox="0 0 136.59 18" style="enable-background:new 0 0 136.59 18;" xml:space="preserve">
<style type="text/css">
	.st0{fill:#50007F;}
	.st1{fill:#E42320;}
</style>
<path class="st0" d="M122.21,0.37c-0.12-0.18-0.34-0.3-0.55-0.3h-3.37c-0.27,0-0.44,0.3-0.29,0.53l5.39,8.33
	c0.03,0.05,0.03,0.1,0,0.15L118,17.41c-0.15,0.23,0.02,0.53,0.29,0.53h3.39c0.22,0,0.42-0.11,0.53-0.29l5.26-8.18
	c0.18-0.29,0.18-0.66,0-0.94L122.21,0.37z"/>
<path class="st1" d="M128.54,10.2c-0.06-0.09-0.18-0.09-0.24,0l-1.76,2.73c-0.18,0.29-0.18,0.66,0,0.94l2.39,3.71
	c0.14,0.22,0.38,0.35,0.64,0.35h3.32c0.27,0,0.44-0.3,0.29-0.53L128.54,10.2z"/>
<path class="st1" d="M128.94,0.41l-2.39,3.71c-0.18,0.29-0.18,0.66,0,0.94l1.76,2.73c0.05,0.09,0.18,0.09,0.23,0l4.64-7.21
	c0.14-0.22-0.02-0.52-0.28-0.52h-3.33C129.32,0.06,129.08,0.2,128.94,0.41z"/>
<g>
	<g>
		<path class="st0" d="M-0.07,17.81V1.01h3.22l7.15,11.86h-1.7L15.6,1.01h3.24v16.8h-3.62L15.17,6.6h0.72l-5.66,9.41H8.5L2.76,6.6
			h0.79v11.21H-0.07z"/>
		<path class="st0" d="M28.71,18c-1.36,0-2.57-0.29-3.64-0.86c-1.06-0.58-1.9-1.36-2.51-2.36c-0.61-1-0.91-2.14-0.91-3.42
			c0-1.3,0.3-2.44,0.91-3.44c0.61-1,1.44-1.78,2.51-2.35s2.28-0.85,3.64-0.85c1.38,0,2.6,0.28,3.67,0.85
			c1.07,0.57,1.91,1.35,2.52,2.35c0.61,1,0.91,2.15,0.91,3.44s-0.3,2.44-0.91,3.43c-0.61,0.99-1.45,1.78-2.52,2.35
			C31.31,17.71,30.08,18,28.71,18z M28.71,14.93c0.64,0,1.2-0.14,1.69-0.42c0.49-0.28,0.88-0.69,1.18-1.24
			c0.3-0.54,0.44-1.18,0.44-1.92c0-0.75-0.15-1.39-0.44-1.92S30.89,8.5,30.4,8.22c-0.49-0.28-1.04-0.42-1.67-0.42
			s-1.18,0.14-1.68,0.42s-0.89,0.68-1.19,1.21c-0.3,0.53-0.44,1.17-0.44,1.92c0,0.74,0.15,1.38,0.44,1.92
			c0.3,0.54,0.69,0.96,1.19,1.24S28.1,14.93,28.71,14.93z"/>
		<path class="st0" d="M46.15,4.7c1.02,0,1.94,0.2,2.75,0.61c0.81,0.41,1.44,1.03,1.91,1.87c0.46,0.84,0.7,1.92,0.7,3.23v7.39h-3.74
			v-6.82c0-1.04-0.23-1.81-0.68-2.3c-0.46-0.5-1.1-0.74-1.93-0.74c-0.59,0-1.12,0.13-1.6,0.38c-0.47,0.26-0.84,0.63-1.1,1.13
			c-0.26,0.5-0.4,1.15-0.4,1.97v6.38h-3.74V4.9h3.58v3.58l-0.67-1.08c0.46-0.86,1.13-1.53,1.99-1.99C44.07,4.94,45.05,4.7,46.15,4.7
			z"/>
		<path class="st0" d="M53.35,8.06V5.18h8.95v2.88H53.35z M60.17,18c-1.52,0-2.7-0.39-3.55-1.16c-0.85-0.78-1.27-1.93-1.27-3.47
			V2.04h3.77V13.3c0,0.54,0.14,0.97,0.42,1.27c0.28,0.3,0.66,0.46,1.14,0.46c0.61,0,1.12-0.16,1.54-0.48l0.98,2.64
			c-0.37,0.27-0.82,0.48-1.36,0.61S60.75,18,60.17,18z"/>
		<path class="st0" d="M65.33,17.81V4.9h3.58v3.67l-0.5-1.08c0.38-0.91,1-1.6,1.85-2.08c0.85-0.47,1.88-0.71,3.1-0.71v3.48
			c-0.14-0.03-0.28-0.06-0.42-0.07c-0.14-0.02-0.27-0.02-0.4-0.02c-1.06,0-1.9,0.3-2.52,0.89c-0.62,0.59-0.94,1.5-0.94,2.74v6.1
			H65.33z"/>
		<path class="st0" d="M82.08,18c-1.47,0-2.76-0.29-3.86-0.86c-1.1-0.58-1.96-1.36-2.57-2.36c-0.61-1-0.91-2.14-0.91-3.42
			c0-1.28,0.29-2.42,0.88-3.43c0.58-1.01,1.4-1.8,2.45-2.36c1.05-0.57,2.23-0.85,3.54-0.85c1.26,0,2.4,0.27,3.42,0.82
			c1.02,0.54,1.82,1.31,2.41,2.3s0.89,2.18,0.89,3.58c0,0.14-0.01,0.31-0.02,0.49c-0.02,0.18-0.03,0.36-0.05,0.52H77.76v-2.18h8.52
			l-1.46,0.65c0.02-0.67-0.11-1.26-0.38-1.75c-0.27-0.5-0.65-0.88-1.13-1.16c-0.48-0.28-1.04-0.42-1.68-0.42
			c-0.64,0-1.2,0.14-1.69,0.42c-0.49,0.28-0.87,0.67-1.14,1.18c-0.27,0.5-0.41,1.1-0.41,1.79v0.58c0,0.72,0.16,1.34,0.48,1.87
			c0.32,0.53,0.76,0.93,1.32,1.21C80.75,14.86,81.42,15,82.2,15c0.67,0,1.27-0.1,1.79-0.31c0.52-0.21,1-0.52,1.43-0.94l1.99,2.16
			c-0.59,0.67-1.34,1.19-2.23,1.55C84.28,17.82,83.25,18,82.08,18z"/>
		<path class="st0" d="M96.31,18c-1.22,0-2.31-0.28-3.29-0.83c-0.98-0.55-1.74-1.32-2.3-2.32c-0.56-0.99-0.84-2.16-0.84-3.5
			c0-1.34,0.28-2.51,0.84-3.5c0.56-0.99,1.33-1.76,2.3-2.32C94,4.98,95.1,4.7,96.31,4.7c1.09,0,2.04,0.24,2.86,0.72
			s1.45,1.21,1.9,2.18c0.45,0.98,0.67,2.22,0.67,3.74c0,1.5-0.22,2.75-0.65,3.74s-1.05,1.72-1.86,2.2C98.42,17.76,97.45,18,96.31,18
			z M96.94,14.93c0.62,0,1.18-0.14,1.68-0.42s0.89-0.69,1.19-1.24c0.3-0.54,0.44-1.18,0.44-1.92c0-0.75-0.15-1.39-0.44-1.92
			s-0.69-0.93-1.19-1.21S97.56,7.8,96.94,7.8c-0.61,0-1.16,0.14-1.66,0.42s-0.89,0.68-1.19,1.21c-0.3,0.53-0.44,1.17-0.44,1.92
			c0,0.74,0.15,1.38,0.44,1.92c0.3,0.54,0.69,0.96,1.19,1.24S96.33,14.93,96.94,14.93z M100.35,17.81v-2.64l0.07-3.84l-0.24-3.82
			V4.9h3.74v12.91H100.35z"/>
		<path class="st0" d="M107.38,17.81V0h3.74v17.81H107.38z"/>
	</g>
</g>
</svg>
